<svg xmlns="http://www.w3.org/2000/svg" xmlns:xlink="http://www.w3.org/1999/xlink" width="172pt" height="188pt" viewBox="0.00 0.00 172.00 188.00">
<g id="graph0" class="graph" transform="scale(1 1) rotate(0) translate(4 184)">
<title>G</title>
<polygon fill="lightyellow" stroke="transparent" points="-4,4 -4,-184 168,-184 168,4 -4,4"/>
<!-- Add(Symbol(&#39;x&#39;), Mul(Symbol(&#39;x&#39;), Symbol(&#39;y&#39;)))_() -->
<g id="node1" class="node">
<title>Add(Symbol('x'), Mul(Symbol('x'), Symbol('y')))_()</title>
<ellipse fill="none" stroke="black" cx="64" cy="-162" rx="28.7" ry="18"/>
<text text-anchor="middle" x="64" y="-158.3" font-family="Times,serif" font-size="14.00">Add</text>
</g>
<!-- Symbol(&#39;x&#39;)_(0,) -->
<g id="node2" class="node">
<title>Symbol('x')_(0,)</title>
<ellipse fill="none" stroke="black" cx="27" cy="-90" rx="27" ry="18"/>
<text text-anchor="middle" x="27" y="-86.3" font-family="Times,serif" font-size="14.00">x</text>
</g>
<!-- Add(Symbol(&#39;x&#39;), Mul(Symbol(&#39;x&#39;), Symbol(&#39;y&#39;)))_()&#45;&gt;Symbol(&#39;x&#39;)_(0,) -->
<g id="edge1" class="edge">
<title>Add(Symbol('x'), Mul(Symbol('x'), Symbol('y')))_()-&gt;Symbol('x')_(0,)</title>
<path fill="none" stroke="black" d="M55.42,-144.76C50.94,-136.28 45.35,-125.71 40.32,-116.2"/>
<polygon fill="black" stroke="black" points="43.3,-114.35 35.54,-107.15 37.11,-117.62 43.3,-114.35"/>
</g>
<!-- Mul(Symbol(&#39;x&#39;), Symbol(&#39;y&#39;))_(1,) -->
<g id="node3" class="node">
<title>Mul(Symbol('x'), Symbol('y'))_(1,)</title>
<ellipse fill="none" stroke="black" cx="101" cy="-90" rx="28.7" ry="18"/>
<text text-anchor="middle" x="101" y="-86.3" font-family="Times,serif" font-size="14.00">Mul</text>
</g>
<!-- Add(Symbol(&#39;x&#39;), Mul(Symbol(&#39;x&#39;), Symbol(&#39;y&#39;)))_()&#45;&gt;Mul(Symbol(&#39;x&#39;), Symbol(&#39;y&#39;))_(1,) -->
<g id="edge2" class="edge">
<title>Add(Symbol('x'), Mul(Symbol('x'), Symbol('y')))_()-&gt;Mul(Symbol('x'), Symbol('y'))_(1,)</title>
<path fill="none" stroke="black" d="M72.58,-144.76C77,-136.4 82.49,-126.02 87.47,-116.61"/>
<polygon fill="black" stroke="black" points="90.63,-118.11 92.21,-107.63 84.44,-114.84 90.63,-118.11"/>
</g>
<!-- Symbol(&#39;x&#39;)_(1, 0) -->
<g id="node4" class="node">
<title>Symbol('x')_(1, 0)</title>
<ellipse fill="none" stroke="black" cx="65" cy="-18" rx="27" ry="18"/>
<text text-anchor="middle" x="65" y="-14.3" font-family="Times,serif" font-size="14.00">x</text>
</g>
<!-- Mul(Symbol(&#39;x&#39;), Symbol(&#39;y&#39;))_(1,)&#45;&gt;Symbol(&#39;x&#39;)_(1, 0) -->
<g id="edge3" class="edge">
<title>Mul(Symbol('x'), Symbol('y'))_(1,)-&gt;Symbol('x')_(1, 0)</title>
<path fill="none" stroke="black" d="M92.65,-72.76C88.29,-64.28 82.85,-53.71 77.96,-44.2"/>
<polygon fill="black" stroke="black" points="80.99,-42.44 73.3,-35.15 74.77,-45.64 80.99,-42.44"/>
</g>
<!-- Symbol(&#39;y&#39;)_(1, 1) -->
<g id="node5" class="node">
<title>Symbol('y')_(1, 1)</title>
<ellipse fill="none" stroke="black" cx="137" cy="-18" rx="27" ry="18"/>
<text text-anchor="middle" x="137" y="-14.3" font-family="Times,serif" font-size="14.00">y</text>
</g>
<!-- Mul(Symbol(&#39;x&#39;), Symbol(&#39;y&#39;))_(1,)&#45;&gt;Symbol(&#39;y&#39;)_(1, 1) -->
<g id="edge4" class="edge">
<title>Mul(Symbol('x'), Symbol('y'))_(1,)-&gt;Symbol('y')_(1, 1)</title>
<path fill="none" stroke="black" d="M109.35,-72.76C113.71,-64.28 119.15,-53.71 124.04,-44.2"/>
<polygon fill="black" stroke="black" points="127.23,-45.64 128.7,-35.15 121.01,-42.44 127.23,-45.64"/>
</g>
</g>
</svg>