<svg xmlns="http://www.w3.org/2000/svg" xmlns:xlink="http://www.w3.org/1999/xlink" width="134pt" height="116pt" viewBox="0.00 0.00 134.00 116.00">
<g id="graph0" class="graph" transform="scale(1 1) rotate(0) translate(4 112)">
<title>G</title>
<polygon fill="lightyellow" stroke="transparent" points="-4,4 -4,-112 130,-112 130,4 -4,4"/>
<!-- Pow(Symbol(&#39;x&#39;), Integer(2))_() -->
<g id="node1" class="node">
<title>Pow(Symbol('x'), Integer(2))_()</title>
<ellipse fill="none" stroke="black" cx="63" cy="-90" rx="29.8" ry="18"/>
<text text-anchor="middle" x="63" y="-86.3" font-family="Times,serif" font-size="14.00">Pow</text>
</g>
<!-- Symbol(&#39;x&#39;)_(0,) -->
<g id="node2" class="node">
<title>Symbol('x')_(0,)</title>
<ellipse fill="none" stroke="black" cx="27" cy="-18" rx="27" ry="18"/>
<text text-anchor="middle" x="27" y="-14.3" font-family="Times,serif" font-size="14.00">x</text>
</g>
<!-- Pow(Symbol(&#39;x&#39;), Integer(2))_()&#45;&gt;Symbol(&#39;x&#39;)_(0,) -->
<g id="edge1" class="edge">
<title>Pow(Symbol('x'), Integer(2))_()-&gt;Symbol('x')_(0,)</title>
<path fill="none" stroke="black" d="M54.47,-72.41C50.16,-64.04 44.85,-53.71 40.05,-44.37"/>
<polygon fill="black" stroke="black" points="43.16,-42.76 35.47,-35.47 36.93,-45.96 43.16,-42.76"/>
</g>
<!-- Integer(2)_(1,) -->
<g id="node3" class="node">
<title>Integer(2)_(1,)</title>
<ellipse fill="none" stroke="black" cx="99" cy="-18" rx="27" ry="18"/>
<text text-anchor="middle" x="99" y="-14.3" font-family="Times,serif" font-size="14.00">2</text>
</g>
<!-- Pow(Symbol(&#39;x&#39;), Integer(2))_()&#45;&gt;Integer(2)_(1,) -->
<g id="edge2" class="edge">
<title>Pow(Symbol('x'), Integer(2))_()-&gt;Integer(2)_(1,)</title>
<path fill="none" stroke="black" d="M71.53,-72.41C75.84,-64.04 81.15,-53.71 85.95,-44.37"/>
<polygon fill="black" stroke="black" points="89.07,-45.96 90.53,-35.47 82.84,-42.76 89.07,-45.96"/>
</g>
</g>
</svg>