<svg xmlns="http://www.w3.org/2000/svg" xmlns:xlink="http://www.w3.org/1999/xlink" width="280pt" height="188pt" viewBox="0.00 0.00 280.00 188.00">
<g id="graph0" class="graph" transform="scale(1 1) rotate(0) translate(4 184)">
<title>G</title>
<polygon fill="lightyellow" stroke="transparent" points="-4,4 -4,-184 276,-184 276,4 -4,4"/>
<!-- Add(Pow(Symbol(&#39;x&#39;), Integer(2)), Mul(Symbol(&#39;x&#39;), Symbol(&#39;y&#39;)))_() -->
<g id="node1" class="node">
<title>Add(Pow(Symbol('x'), Integer(2)), Mul(Symbol('x'), Symbol('y')))_()</title>
<ellipse fill="none" stroke="black" cx="136" cy="-162" rx="28.7" ry="18"/>
<text text-anchor="middle" x="136" y="-158.3" font-family="Times,serif" font-size="14.00">Add</text>
</g>
<!-- Pow(Symbol(&#39;x&#39;), Integer(2))_(0,) -->
<g id="node2" class="node">
<title>Pow(Symbol('x'), Integer(2))_(0,)</title>
<ellipse fill="none" stroke="black" cx="98" cy="-90" rx="29.8" ry="18"/>
<text text-anchor="middle" x="98" y="-86.3" font-family="Times,serif" font-size="14.00">Pow</text>
</g>
<!-- Add(Pow(Symbol(&#39;x&#39;), Integer(2)), Mul(Symbol(&#39;x&#39;), Symbol(&#39;y&#39;)))_()&#45;&gt;Pow(Symbol(&#39;x&#39;), Integer(2))_(0,) -->
<g id="edge1" class="edge">
<title>Add(Pow(Symbol('x'), Integer(2)), Mul(Symbol('x'), Symbol('y')))_()-&gt;Pow(Symbol('x'), Integer(2))_(0,)</title>
<path fill="none" stroke="black" d="M127.19,-144.76C122.65,-136.4 117.01,-126.02 111.9,-116.61"/>
<polygon fill="black" stroke="black" points="114.88,-114.75 107.03,-107.63 108.72,-118.09 114.88,-114.75"/>
</g>
<!-- Mul(Symbol(&#39;x&#39;), Symbol(&#39;y&#39;))_(1,) -->
<g id="node5" class="node">
<title>Mul(Symbol('x'), Symbol('y'))_(1,)</title>
<ellipse fill="none" stroke="black" cx="174" cy="-90" rx="28.7" ry="18"/>
<text text-anchor="middle" x="174" y="-86.3" font-family="Times,serif" font-size="14.00">Mul</text>
</g>
<!-- Add(Pow(Symbol(&#39;x&#39;), Integer(2)), Mul(Symbol(&#39;x&#39;), Symbol(&#39;y&#39;)))_()&#45;&gt;Mul(Symbol(&#39;x&#39;), Symbol(&#39;y&#39;))_(1,) -->
<g id="edge2" class="edge">
<title>Add(Pow(Symbol('x'), Integer(2)), Mul(Symbol('x'), Symbol('y')))_()-&gt;Mul(Symbol('x'), Symbol('y'))_(1,)</title>
<path fill="none" stroke="black" d="M144.81,-144.76C149.42,-136.28 155.16,-125.71 160.32,-116.2"/>
<polygon fill="black" stroke="black" points="163.54,-117.61 165.23,-107.15 157.39,-114.27 163.54,-117.61"/>
</g>
<!-- Symbol(&#39;x&#39;)_(0, 0) -->
<g id="node3" class="node">
<title>Symbol('x')_(0, 0)</title>
<ellipse fill="none" stroke="black" cx="27" cy="-18" rx="27" ry="18"/>
<text text-anchor="middle" x="27" y="-14.3" font-family="Times,serif" font-size="14.00">x</text>
</g>
<!-- Pow(Symbol(&#39;x&#39;), Integer(2))_(0,)&#45;&gt;Symbol(&#39;x&#39;)_(0, 0) -->
<g id="edge3" class="edge">
<title>Pow(Symbol('x'), Integer(2))_(0,)-&gt;Symbol('x')_(0, 0)</title>
<path fill="none" stroke="black" d="M82.94,-74.15C73.02,-64.37 59.87,-51.4 48.81,-40.5"/>
<polygon fill="black" stroke="black" points="51.13,-37.87 41.55,-33.35 46.21,-42.86 51.13,-37.87"/>
</g>
<!-- Integer(2)_(0, 1) -->
<g id="node4" class="node">
<title>Integer(2)_(0, 1)</title>
<ellipse fill="none" stroke="black" cx="99" cy="-18" rx="27" ry="18"/>
<text text-anchor="middle" x="99" y="-14.3" font-family="Times,serif" font-size="14.00">2</text>
</g>
<!-- Pow(Symbol(&#39;x&#39;), Integer(2))_(0,)&#45;&gt;Integer(2)_(0, 1) -->
<g id="edge4" class="edge">
<title>Pow(Symbol('x'), Integer(2))_(0,)-&gt;Integer(2)_(0, 1)</title>
<path fill="none" stroke="black" d="M98.25,-71.7C98.36,-63.98 98.49,-54.71 98.61,-46.11"/>
<polygon fill="black" stroke="black" points="102.11,-46.15 98.76,-36.1 95.11,-46.05 102.11,-46.15"/>
</g>
<!-- Symbol(&#39;x&#39;)_(1, 0) -->
<g id="node6" class="node">
<title>Symbol('x')_(1, 0)</title>
<ellipse fill="none" stroke="black" cx="173" cy="-18" rx="27" ry="18"/>
<text text-anchor="middle" x="173" y="-14.3" font-family="Times,serif" font-size="14.00">x</text>
</g>
<!-- Mul(Symbol(&#39;x&#39;), Symbol(&#39;y&#39;))_(1,)&#45;&gt;Symbol(&#39;x&#39;)_(1, 0) -->
<g id="edge5" class="edge">
<title>Mul(Symbol('x'), Symbol('y'))_(1,)-&gt;Symbol('x')_(1, 0)</title>
<path fill="none" stroke="black" d="M173.75,-71.7C173.64,-63.98 173.51,-54.71 173.39,-46.11"/>
<polygon fill="black" stroke="black" points="176.89,-46.05 173.24,-36.1 169.89,-46.15 176.89,-46.05"/>
</g>
<!-- Symbol(&#39;y&#39;)_(1, 1) -->
<g id="node7" class="node">
<title>Symbol('y')_(1, 1)</title>
<ellipse fill="none" stroke="black" cx="245" cy="-18" rx="27" ry="18"/>
<text text-anchor="middle" x="245" y="-14.3" font-family="Times,serif" font-size="14.00">y</text>
</g>
<!-- Mul(Symbol(&#39;x&#39;), Symbol(&#39;y&#39;))_(1,)&#45;&gt;Symbol(&#39;y&#39;)_(1, 1) -->
<g id="edge6" class="edge">
<title>Mul(Symbol('x'), Symbol('y'))_(1,)-&gt;Symbol('y')_(1, 1)</title>
<path fill="none" stroke="black" d="M188.71,-74.5C198.61,-64.73 211.84,-51.69 222.99,-40.7"/>
<polygon fill="black" stroke="black" points="225.64,-43 230.31,-33.49 220.73,-38.01 225.64,-43"/>
</g>
</g>
</svg>